
<svg id="icon-atol-logo" xmlns="http://www.w3.org/2000/svg" xmlns:xlink="http://www.w3.org/1999/xlink" viewBox="0 0 5500 5000">
  <style>
    .st0{fill:#203240}.st1{fill:#fff}
  </style>
  <path class="st0" d="M1916.1 1675.3h3331.3c125.3 0 226.8 101.5 226.8 226.8v1195.8c0 125.3-101.5 226.8-226.8 226.8H1917.6c-238.8 194.4-550.3 275.4-853.6 222-577.4-101.9-963-652.6-861.1-1230.1 101.8-577.5 652.5-963.1 1230-861.2 177.2 31 343.5 106.6 483.2 219.9z"/>
  <g transform="translate(2 2)">
    <circle class="st0" cx="1245.4" cy="2498" r="1139.2"/>
    <circle id="icon-atol-logo_a" class="st1" cx="1245.4" cy="2498" r="1082.5"/>
  </g>
  <path class="st1" d="M2671 2807.5h35.2c26.1 1.9 52.2-4.3 74.6-17.7 16.7-13.4 25.6-34.2 23.9-55.5 1.5-19.8-6.4-39.1-21.4-52.2-19.7-13-43.2-19.1-66.7-17.2h-46l.4 142.6zm202.4-75.5c2.3 37.2-13.2 73.4-41.6 97.5-27.8 22.5-67.2 33.8-118.6 33.8h-42.1v152h-66.3v-406.1h116.9c50.7 0 88.7 10.4 114 31.1 26.2 22.9 40.2 56.9 37.7 91.7zm230-29.4c10.9-.2 21.8.7 32.5 2.8l-6.4 60.7c-9.5-2.2-19.2-3.3-28.9-3.2-23.8-.9-46.9 8.4-63.5 25.5-16.6 18-25.3 42-24.3 66.3v160.6h-65.2V2708h51.1l8.7 54.2h3.4c9.4-17.6 23.1-32.5 39.7-43.5 15.8-10.5 34.1-16.1 52.9-16.1m127.3 158.6c0 71 26.2 106.4 78.6 106.4 52.4 0 78.2-35.4 77.7-106.4 0-70.2-26.1-105.3-78.2-105.3-23.3-2-46 8.3-59.8 27.2-13.6 23.7-19.9 50.9-18 78.1h-.3zm223.8 0c0 49.8-12.9 89-38.6 117.5-28 29-67.2 44.5-107.5 42.2-26.6.6-53-6.2-76.2-19.4-22.1-13.1-39.9-32.5-50.9-55.8a188.07 188.07 0 0 1-17.8-84.5c0-49.7 12.8-88.6 38.4-116.6 28.2-29 67.6-44.4 108-42 39.7-1.9 78.4 13.9 105.5 43.1 27.2 32.1 41.2 73.5 39 115.6l.1-.1zm189.5 106.9c16.2 0 32.3-2.5 47.7-7.4v49.2c-9 3.6-18.4 6.3-28 7.9-11.8 2.3-23.8 3.6-35.7 3.7-62 0-92.9-32.5-92.9-97.7v-166.2h-41.6v-28.8l44.8-23.8 22.2-65.1h40.3v68.3h87.3v49.4H3601v164.1c-1.1 12.8 3.2 25.4 11.8 34.9 8.4 7.9 19.6 12 31 11.5m231.5-215.2c-18.7-.8-36.8 6.4-49.9 19.7-13.6 16-21.5 36.3-22.3 57.4h139.4c1.1-20.8-5.4-41.2-18.3-57.6-12.5-13.6-30.3-21.1-48.8-20.4v.9h-.1zm11.9 268.6c-41.5 2.3-82.1-12.8-112-41.7a158.66 158.66 0 0 1-40.4-115.1c0-49.8 12.5-89.2 37.4-118.4 26.1-29.2 64-45.1 103.2-43.1 35.7-2 70.5 11.3 95.8 36.4 24.8 28 37.4 64.5 35.3 101.7v35.2H3802c-.8 25.2 7.8 49.7 24.2 68.9 17 16.7 40.4 25.5 64.2 24 17 .1 34-1.7 50.7-5.2 17.3-4 34.2-9.6 50.5-17v53.1c-15.4 7.4-31.6 12.9-48.4 16.2-18.4 3.5-37.2 5.3-56 5.2v-.2zm317.6 0c-46.5 0-81.8-13.6-106-40.7-24.1-27.2-36.2-66.1-36.2-116.8 0-51.6 12.6-91.5 37.8-119.3 25.3-27.8 61.8-42 109.5-42.1 30.1-.5 59.9 5.7 87.3 18l-19.6 52.5c-21.5-9.3-44.4-14.8-67.8-16.1-53.2 0-79.7 35.3-79.7 105.8-2 27.4 5 54.6 19.8 77.7 13.9 17.7 35.7 27.4 58.2 26.1 28.9 0 57.3-7.5 82.5-21.7v56.9c-11.6 6.9-24.2 11.9-37.3 14.9-16 3.4-32.3 5-48.8 4.8m272.4-53.4c16.2 0 32.3-2.5 47.7-7.4v49.2c-9 3.6-18.4 6.3-28 7.9-11.7 2.1-23.5 3.2-35.4 3.1-61.8 0-92.8-32.6-92.8-97.8v-165.6h-42v-28.9l44.8-23.8 22.2-65h40.1v68.3h87.4v49.4h-87.4v164.1c-1.1 12.8 3.2 25.4 11.8 34.9 8.7 8.1 20.1 12.2 31.6 11.6m231.4-215.2c-18.7-.8-36.8 6.4-49.9 19.7-13.6 16-21.5 36.3-22.3 57.4h139.5c1.1-20.8-5.4-41.3-18.4-57.6-12.5-13.6-30.4-21.1-48.9-20.4v.9zm11.9 268.6c-41.5 2.3-82.1-12.8-112-41.7a158.66 158.66 0 0 1-40.4-115.1c0-49.8 12.5-89.2 37.4-118.4 26.1-29.2 64-45.1 103.1-43.1 35.8-1.9 70.7 11.5 96.1 36.9 24.7 28 37.4 64.5 35.2 101.7v35.2h-204.7c-.8 25.2 7.9 49.7 24.2 68.9 17 16.8 40.3 25.5 64.2 24 17 .1 34-1.7 50.7-5.2 17.4-4 34.2-9.6 50.5-17v53.1c-15.3 7.4-31.6 12.8-48.4 16-18.5 3.4-37.1 5-55.9 4.7zm314.9-52.8c22 2 43.6-6.4 58.6-22.7 12.2-15.1 18.5-39.7 18.9-73.4v-9.2c0-38.7-6.2-66.2-18.9-82.5-14.7-17.4-37-26.5-59.7-24.5-21.4-.9-41.7 9.8-53.1 28-13.8 24.1-20.3 51.8-18.7 79.6-1.7 27.2 4.5 54.2 18.1 77.9 12.2 17.9 33.1 28 54.7 26.4l.1.4zm-17.6 52.7c-34.8 1.7-68.3-13.9-89.5-41.6-21.5-27.8-32.2-66.7-32.2-117 0-50.2 10.8-89.5 32.7-117.7 21.5-28 55.2-43.7 90.4-42.1 36.4-1.9 71.2 15 92.2 44.8h3.4c-2.8-17.3-4.4-34.8-4.8-52.3v-111.9h65.5v432.7H5124l-11.3-40.3h-2.9c-20.6 30.2-55.6 47.3-92.1 45.4h-.2zM4102.3 2224.8l-38-110.6c-2.8-7.4-6.6-19.1-11.5-35-3.6-11.7-7-23.4-10.2-35.2-5.7 25.3-13 50.2-21.9 74.6l-36.7 105.8 118.3.4zm58.1 170l-40-112.8h-155.9l-39.7 112.8h-70l152-407.8h72.1l152 407.8h-70.5zm204.2 0h-66.3v-349.2h-119.4v-56.9H4484v56.9h-119.4m200.4 145.5c0 49.7 9.9 87.7 29.8 113.8 46.8 49.5 124.7 51.6 174.2 4.9l4.8-4.8c19.8-25.5 29.8-63.5 29.8-114.1 0-50.5-10-88.3-29.8-113.2-21.8-26.7-55.2-41.1-89.6-38.7-34.3-2.1-67.5 12.3-89.5 38.7-20 26-30.1 63.8-30.1 113.6h.2l.2-.2zm309.9 0c0 66.1-16.4 117.5-49.6 154.1-32.9 36.7-79.7 55-140.3 55.1-61.2 0-108.3-18.1-141.2-54.6-32.8-36.5-49.2-88.1-49.2-155.1 0-67.1 16.6-118.5 49.6-154.5 33.1-35.8 80.2-53.9 141.5-53.9 60.4 0 107 18.3 139.9 54.8 32.9 36.7 49.3 88.1 49.3 154.1zm66.3 203.7v-406h66.3v349.1h172.4v56.9M3102.1 2394.8l-9.1-40.3h-3.4c-9.5 14.6-22.9 26.2-38.7 33.5-17.9 8.5-37.5 12.6-57.3 12.3-37.3 0-65-9.2-83.4-27.8-18.3-18.5-27.8-46.5-28.4-84.1v-200.8h65.8v189.5c-1.1 18.9 4.1 37.6 15 53 11.5 12.5 28 18.9 44.8 17.6 22.7 1.7 44.8-7.4 59.8-24.6 12.8-16.4 19.3-43.8 19.3-82.4v-153.1h65.4v307.3h-49.8v-.1zm-431.7 0h-65.8v-406h229.2v56.1h-163.4v126.9h153.1v56.4h-153.1m561.3 166.6h65.2v-432.7h-65.2m143.7 432.7h65.2v-432.7h-65.2m111.7 125.5h71.3l62.5 174.1c8.8 22.7 15.2 46.1 18.9 70.1h2.3c2.3-12.6 5.3-24.9 9.1-37.2 4.5-14.5 28-83.5 70.6-207.1h70.4l-131.3 347.9c-23.9 64.1-63.7 95.9-119.4 95.8-14.2 0-28.4-1.6-42.2-4.8v-51.3c11 2.4 22.3 3.4 33.6 3.3 31.5 0 53.6-18.1 66.3-54.7l11.3-28.9-123.4-307.2z"/>
  <defs>
    <path id="SVGID_1_" d="M164.6 2500c0 597.8 485.1 1082.8 1082.8 1082.8s1082.8-485 1082.8-1082.8-485.1-1082.8-1082.8-1082.8S164.6 1902.2 164.6 2500"/>
  </defs>
  <clipPath id="SVGID_2_">
    <use xlink:href="#SVGID_1_" overflow="visible"/>
  </clipPath>
  <path d="M1668.8 2647s-249.9-4.9-372.4-249.9c-171.5-338.1 186.2-524.3 186.2-524.3l313.6 53.9-127.4 720.3z" clip-path="url(#SVGID_2_)" fill="#fff"/>
  <defs>
    <path id="SVGID_3_" d="M164.6 2500c0 597.8 485.1 1082.8 1082.8 1082.8s1082.8-485 1082.8-1082.8-485.1-1082.8-1082.8-1082.8S164.6 1902.2 164.6 2500"/>
  </defs>
  <clipPath id="SVGID_4_">
    <use xlink:href="#SVGID_3_" overflow="visible"/>
  </clipPath>
  <path d="M1325.8 2754.8c-19.6-4.9-29.4 0-44.1 0s-19.6 14.7-19.6 24.5 0 24.5 9.8 29.4c9.8 9.8 24.5 14.7 39.2 19.6 19.6 4.9 29.4 0 44.1 0 9.8-4.9 19.6-14.7 19.6-24.5s0-19.6-9.8-29.4c-9.8-9.8-24.5-14.7-39.2-19.6m-436.1-24.5l53.9 9.8L924 2696l-34.3 34.3zm279.3-210.7c-205.8-215.6-210.7-475.3-78.4-710.4l-171.5-29.4-191 1097.5 877 156.8 58.8-328.3c-4.9-4.9-289.1 29.4-494.9-186.2m-205.8 264.6l-9.8-24.5L875 2745l-19.6 19.6-44.1-9.8 93.1-93.1 49 9.8 53.9 117.6-44.1-4.9zm240.1-44.1l-58.8-14.7-14.7 88.2-44.1-9.8 14.7-88.2-63.7-9.8 4.9-19.6 171.5 29.4-9.8 24.5zm215.6 73.5c-4.9 19.6-14.7 29.4-39.2 39.2-19.6 4.9-39.2 4.9-68.6 0s-53.9-14.7-68.6-24.5c-19.6-14.7-29.4-29.4-24.5-49 4.9-19.6 14.7-34.3 39.2-39.2 19.6-4.9 39.2-4.9 68.6 0s53.9 14.7 68.6 24.5c19.6 9.8 24.5 29.4 24.5 49m171.5 83.3l-147-24.5 19.6-107.8 44.1 9.8-19.6 83.3 102.9 19.6v19.6z" clip-path="url(#SVGID_4_)" fill="#fff"/>
  <defs>
    <path id="SVGID_5_" d="M164.6 2500c0 597.8 485.1 1082.8 1082.8 1082.8s1082.8-485 1082.8-1082.8-485.1-1082.8-1082.8-1082.8S164.6 1902.2 164.6 2500"/>
  </defs>
  <clipPath id="SVGID_6_">
    <use xlink:href="#SVGID_5_" overflow="visible"/>
  </clipPath>
  <path d="M179.3 2313.8c-102.9 588 289.1 1151.4 877 1254.3 588 102.9 1151.4-289.1 1254.3-877 9.8-63.7 14.7-127.4 14.7-186.2 0-514.5-372.4-975-896.6-1063.2-583-112.7-1141.6 284.2-1249.4 872.1M1071 3494.6c-548.8-93.1-916.2-622.3-823.1-1171 98-548.8 627.2-916.2 1175.9-823.1 548.8 98 916.2 622.3 823.1 1171-97.9 553.6-627.1 921.1-1175.9 823.1" clip-path="url(#SVGID_6_)" fill="#fff"/>
  <defs>
    <path id="SVGID_7_" d="M164.6 2500c0 597.8 485.1 1082.8 1082.8 1082.8s1082.8-485 1082.8-1082.8-485.1-1082.8-1082.8-1082.8S164.6 1902.2 164.6 2500"/>
  </defs>
  <clipPath id="SVGID_8_">
    <use xlink:href="#SVGID_7_" overflow="visible"/>
  </clipPath>
  <path d="M316.5 2735.2c0-9.8-4.9-14.7-4.9-24.5s-4.9-14.7-9.8-24.5l220.5-58.8 19.6 78.4c9.8 44.1 0 73.5-34.3 83.3-58.8 14.7-78.4-24.5-98-78.4l-93.1 24.5zm117.6-34.3c0 4.9 4.9 14.7 9.8 19.6 9.8 19.6 34.3 19.6 49 14.7 24.5-4.9 39.2-24.5 34.3-39.2l-4.9-19.6-88.2 24.5z" clip-path="url(#SVGID_8_)" fill="#fff"/>
  <defs>
    <path id="SVGID_9_" d="M164.6 2500c0 597.8 485.1 1082.8 1082.8 1082.8s1082.8-485 1082.8-1082.8-485.1-1082.8-1082.8-1082.8S164.6 1902.2 164.6 2500"/>
  </defs>
  <clipPath id="SVGID_10_">
    <use xlink:href="#SVGID_9_" overflow="visible"/>
  </clipPath>
  <path d="M581.1 2803.8l34.3 58.8c9.8 14.7 19.6 34.3 19.6 49 0 19.6-4.9 39.2-24.5 49-29.4 14.7-58.8 9.8-78.4-14.7-19.6 29.4-34.3 63.7-49 98l-9.8 19.6-14.7-29.4c-4.9-9.8-9.8-14.7-14.7-24.5l39.2-68.6c4.9-9.8 14.7-24.5 19.6-39.2l-93.1 58.8c-4.9-9.8-4.9-14.7-9.8-24.5-4.9-4.9-9.8-14.7-14.7-19.6l196-112.7zm-68.6 93.1c14.7 29.4 39.2 39.2 68.6 19.6 4.9 0 9.8-4.9 14.7-9.8 19.6-19.6 4.9-39.2-4.9-53.9l-78.4 44.1z" clip-path="url(#SVGID_10_)" fill="#fff"/>
  <defs>
    <path id="SVGID_11_" d="M164.6 2500c0 597.8 485.1 1082.8 1082.8 1082.8s1082.8-485 1082.8-1082.8-485.1-1082.8-1082.8-1082.8S164.6 1902.2 164.6 2500"/>
  </defs>
  <clipPath id="SVGID_12_">
    <use xlink:href="#SVGID_11_" overflow="visible"/>
  </clipPath>
  <path d="M610.5 3220.2c-53.9-49-63.7-112.7-14.7-171.5 44.1-49 117.6-58.8 176.4-4.9 73.5 63.7 49 132.3 14.7 171.5-39.2 49-112.7 58.8-176.4 4.9m19.6-127.3c-29.4 34.3-44.1 78.4-4.9 112.7s88.2 9.8 127.4-29.4c29.4-34.3 44.1-83.3 9.8-112.7-39.2-34.3-83.3-24.5-132.3 29.4" clip-path="url(#SVGID_12_)" fill="#fff"/>
  <defs>
    <path id="SVGID_13_" d="M164.6 2500c0 597.8 485.1 1082.8 1082.8 1082.8s1082.8-485 1082.8-1082.8-485.1-1082.8-1082.8-1082.8S164.6 1902.2 164.6 2500"/>
  </defs>
  <clipPath id="SVGID_14_">
    <use xlink:href="#SVGID_13_" overflow="visible"/>
  </clipPath>
  <path d="M889.7 3386.8c-4.9-4.9-14.7-9.8-24.5-9.8-9.8-4.9-14.7-4.9-24.5-9.8L924 3181c-19.6-9.8-44.1-14.7-58.8-19.6 0-4.9 4.9-9.8 4.9-14.7 0-4.9 4.9-9.8 4.9-14.7l156.8 68.6c0 4.9-4.9 9.8-4.9 9.8 0 4.9-4.9 9.8-4.9 14.7-14.7-9.8-34.3-19.6-53.9-29.4l-78.4 191.1z" clip-path="url(#SVGID_14_)" fill="#fff"/>
  <defs>
    <path id="SVGID_15_" d="M164.6 2500c0 597.8 485.1 1082.8 1082.8 1082.8s1082.8-485 1082.8-1082.8-485.1-1082.8-1082.8-1082.8S164.6 1902.2 164.6 2500"/>
  </defs>
  <clipPath id="SVGID_16_">
    <use xlink:href="#SVGID_15_" overflow="visible"/>
  </clipPath>
  <path d="M1193.5 3230c0 4.9-4.9 9.8-4.9 14.7v14.7c-19.6-4.9-39.2-14.7-73.5-19.6l-9.8 68.6 34.3 4.9c14.7 4.9 29.4 4.9 39.2 4.9 0 4.9-4.9 9.8-4.9 14.7v14.7c-9.8-4.9-24.5-4.9-39.2-9.8l-34.3-4.9-14.7 83.3c34.3 4.9 53.9 9.8 78.4 9.8 0 4.9-4.9 9.8-4.9 14.7v14.7l-122.5-19.6 39.2-225.4 117.6 19.6z" clip-path="url(#SVGID_16_)" fill="#fff"/>
  <defs>
    <path id="SVGID_17_" d="M164.6 2500c0 597.8 485.1 1082.8 1082.8 1082.8s1082.8-485 1082.8-1082.8-485.1-1082.8-1082.8-1082.8S164.6 1902.2 164.6 2500"/>
  </defs>
  <clipPath id="SVGID_18_">
    <use xlink:href="#SVGID_17_" overflow="visible"/>
  </clipPath>
  <path d="M1433.6 3406.4l-4.9 29.4c-19.6 9.8-44.1 19.6-63.7 19.6-68.6 4.9-127.4-29.4-137.2-98-9.8-88.2 49-132.3 117.6-137.2 19.6 0 49 0 68.6 9.8 0 9.8-4.9 24.5-4.9 34.3h-4.9c-14.7-14.7-34.3-29.4-58.8-24.5-53.9 4.9-73.5 58.8-68.6 107.8 4.9 58.8 39.2 93.1 88.2 88.2 24.5-4.9 49-19.6 68.6-29.4z" clip-path="url(#SVGID_18_)" fill="#fff"/>
  <g>
    <defs>
      <path id="SVGID_19_" d="M164.6 2500c0 597.8 485.1 1082.8 1082.8 1082.8s1082.8-485 1082.8-1082.8-485.1-1082.8-1082.8-1082.8S164.6 1902.2 164.6 2500"/>
    </defs>
    <clipPath id="SVGID_20_">
      <use xlink:href="#SVGID_19_" overflow="visible"/>
    </clipPath>
    <path d="M1619.8 3381.9c-9.8 4.9-14.7 4.9-24.5 9.8s-14.7 4.9-24.5 9.8l-73.5-191.1c-19.6 9.8-39.2 19.6-53.9 24.5 0-4.9 0-9.8-4.9-14.7 0-4.9-4.9-9.8-4.9-14.7l156.8-63.7c0 4.9 0 9.8 4.9 14.7 0 4.9 4.9 9.8 4.9 14.7-19.6 4.9-39.2 9.8-58.8 19.6l78.4 191.1z" clip-path="url(#SVGID_20_)" fill="#fff"/>
  </g>
  <g>
    <defs>
      <path id="SVGID_21_" d="M164.6 2500c0 597.8 485.1 1082.8 1082.8 1082.8s1082.8-485 1082.8-1082.8-485.1-1082.8-1082.8-1082.8S164.6 1902.2 164.6 2500"/>
    </defs>
    <clipPath id="SVGID_22_">
      <use xlink:href="#SVGID_21_" overflow="visible"/>
    </clipPath>
    <path d="M1722.7 3053.7c0 4.9 4.9 9.8 4.9 14.7 4.9 4.9 4.9 9.8 9.8 9.8-19.6 9.8-39.2 19.6-63.7 39.2l39.2 58.8 29.4-19.6c9.8-9.8 24.5-19.6 29.4-24.5 0 4.9 4.9 9.8 4.9 14.7l9.8 9.8c-9.8 4.9-24.5 14.7-34.3 19.6l-29.4 19.6 49 68.6c29.4-19.6 44.1-34.3 58.8-49 0 4.9 4.9 9.8 4.9 14.7 0 4.9 4.9 9.8 9.8 9.8l-102.9 73.5-132.3-186.2 112.7-73.5z" clip-path="url(#SVGID_22_)" fill="#fff"/>
  </g>
  <g>
    <defs>
      <path id="SVGID_23_" d="M164.6 2500c0 597.8 485.1 1082.8 1082.8 1082.8s1082.8-485 1082.8-1082.8-485.1-1082.8-1082.8-1082.8S164.6 1902.2 164.6 2500"/>
    </defs>
    <clipPath id="SVGID_24_">
      <use xlink:href="#SVGID_23_" overflow="visible"/>
    </clipPath>
    <path d="M1825.6 2941c44.1-53.9 102.9-44.1 147-14.7 58.8 44.1 58.8 117.6 19.6 166.6l-58.8 73.5-176.4-142.1 68.6-83.3zm122.5 176.4l19.6-24.5c29.4-34.3 34.3-78.4-29.4-127.4-49-39.2-88.2-29.4-117.6 4.9l-19.6 24.5 147 122.5z" clip-path="url(#SVGID_24_)" fill="#fff"/>
  </g>
  <g>
    <defs>
      <path id="SVGID_25_" d="M164.6 2500c0 597.8 485.1 1082.8 1082.8 1082.8s1082.8-485 1082.8-1082.8-485.1-1082.8-1082.8-1082.8S164.6 1902.2 164.6 2500"/>
    </defs>
    <clipPath id="SVGID_26_">
      <use xlink:href="#SVGID_25_" overflow="visible"/>
    </clipPath>
    <path d="M1051.4 1725.9c9.8 9.8 19.6 14.7 34.3 14.7 19.6 4.9 34.3 0 44.1-14.7 9.8-14.7 14.7-29.4 19.6-44.1-9.8 14.7-29.4 19.6-44.1 14.7-39.2-9.8-58.8-34.3-49-78.4 4.9-24.5 14.7-44.1 29.4-53.9 14.7-9.8 34.3-14.7 58.8-9.8 14.7 4.9 24.5 9.8 34.3 14.7 9.8 9.8 14.7 14.7 19.6 24.5 4.9 19.6 4.9 44.1 0 73.5s-14.7 58.8-34.3 78.4c-19.6 24.5-44.1 34.3-78.4 29.4l-44.1-14.7 9.8-34.3zm63.7-58.8c9.8 0 19.6 0 24.5-9.8 4.9-4.9 9.8-14.7 9.8-29.4v-29.4c-4.9-9.8-9.8-14.7-19.6-14.7s-19.6 0-24.5 9.8c-4.9 9.8-9.8 14.7-9.8 29.4v29.4c4.9 4.9 9.8 14.7 19.6 14.7" clip-path="url(#SVGID_26_)" fill="#fff"/>
  </g>
  <g>
    <defs>
      <path id="SVGID_27_" d="M164.6 2500c0 597.8 485.1 1082.8 1082.8 1082.8s1082.8-485 1082.8-1082.8-485.1-1082.8-1082.8-1082.8S164.6 1902.2 164.6 2500"/>
    </defs>
    <clipPath id="SVGID_28_">
      <use xlink:href="#SVGID_27_" overflow="visible"/>
    </clipPath>
    <path d="M1355.2 1637.7c-4.9-4.9-9.8-4.9-14.7-9.8-4.9-4.9-9.8-4.9-19.6-4.9-19.6-4.9-29.4 4.9-44.1 14.7-9.8 14.7-14.7 29.4-19.6 44.1 9.8-14.7 29.4-19.6 44.1-14.7 39.2 9.8 58.8 34.3 49 78.4-4.9 24.5-14.7 39.2-24.5 53.9-14.7 9.8-29.4 14.7-53.9 9.8-29.4-4.9-44.1-19.6-53.9-44.1-4.9-9.8-4.9-19.6-4.9-34.3 0-9.8 0-24.5 4.9-39.2 4.9-29.4 14.7-58.8 34.3-83.3 14.7-24.5 44.1-34.3 73.5-29.4l44.1 14.7-14.7 44.1zm-63.7 58.8c-9.8 0-19.6 0-24.5 9.8-4.9 9.8-9.8 14.7-9.8 29.4v29.4c4.9 9.8 9.8 14.7 19.6 14.7s19.6 0 24.5-9.8c4.9-4.9 9.8-14.7 9.8-24.5v-29.4c-4.9-9.8-9.8-14.7-19.6-19.6" clip-path="url(#SVGID_28_)" fill="#fff"/>
  </g>
  <g>
    <defs>
      <path id="SVGID_29_" d="M164.6 2500c0 597.8 485.1 1082.8 1082.8 1082.8s1082.8-485 1082.8-1082.8-485.1-1082.8-1082.8-1082.8S164.6 1902.2 164.6 2500"/>
    </defs>
    <clipPath id="SVGID_30_">
      <use xlink:href="#SVGID_29_" overflow="visible"/>
    </clipPath>
    <path clip-path="url(#SVGID_30_)" fill="#fff" d="M1482.6 1618.1l39.2 9.8-39.2 215.5-44.1-4.9 29.4-171.4-39.2 24.5-14.7-34.3z"/>
  </g>
  <g>
    <defs>
      <path id="SVGID_31_" d="M164.6 2500c0 597.8 485.1 1082.8 1082.8 1082.8s1082.8-485 1082.8-1082.8-485.1-1082.8-1082.8-1082.8S164.6 1902.2 164.6 2500"/>
    </defs>
    <clipPath id="SVGID_32_">
      <use xlink:href="#SVGID_31_" overflow="visible"/>
    </clipPath>
    <path d="M1600.2 1745.5c-9.8-4.9-14.7-14.7-19.6-24.5-4.9-9.8-4.9-19.6-4.9-29.4 4.9-19.6 14.7-34.3 24.5-39.2 14.7-4.9 29.4-9.8 49-4.9s34.3 9.8 49 19.6c9.8 9.8 14.7 24.5 14.7 44.1 0 9.8-4.9 19.6-14.7 29.4-9.8 9.8-19.6 14.7-29.4 19.6 24.5 19.6 34.3 39.2 29.4 63.7-4.9 19.6-14.7 34.3-29.4 44.1-14.7 9.8-34.3 9.8-53.9 4.9s-39.2-9.8-49-24.5c-14.7-9.8-19.6-29.4-14.7-53.9s24.5-39.2 49-49zm-4.9 58.8c0 9.8 0 14.7 4.9 24.5 4.9 4.9 9.8 9.8 19.6 14.7 9.8 0 14.7 0 24.5-4.9 4.9-4.9 9.8-9.8 14.7-19.6 0-9.8 0-19.6-4.9-29.4-4.9-4.9-14.7-14.7-24.5-14.7s-14.7 4.9-19.6 9.8c-9.8 0-14.7 9.8-14.7 19.6m19.6-102.9v14.7c0 4.9 4.9 9.8 4.9 9.8l9.8 9.8c4.9 4.9 4.9 4.9 9.8 4.9s14.7-4.9 19.6-9.8 9.8-9.8 9.8-19.6 0-14.7-4.9-19.6c-4.9-4.9-9.8-9.8-19.6-9.8s-14.7 0-24.5 4.9c4.9 0 0 4.9-4.9 14.7" clip-path="url(#SVGID_32_)" fill="#fff"/>
  </g>
  <g>
    <defs>
      <path id="SVGID_33_" d="M164.6 2500c0 597.8 485.1 1082.8 1082.8 1082.8s1082.8-485 1082.8-1082.8-485.1-1082.8-1082.8-1082.8S164.6 1902.2 164.6 2500"/>
    </defs>
    <clipPath id="SVGID_34_">
      <use xlink:href="#SVGID_33_" overflow="visible"/>
    </clipPath>
    <path d="M1668.8 2647s-249.9-4.9-372.4-249.9c-171.5-338.1 186.2-524.3 186.2-524.3l313.6 53.9-127.4 720.3z" clip-path="url(#SVGID_34_)"/>
  </g>
  <g>
    <defs>
      <path id="SVGID_35_" d="M164.6 2500c0 597.8 485.1 1082.8 1082.8 1082.8s1082.8-485 1082.8-1082.8-485.1-1082.8-1082.8-1082.8S164.6 1902.2 164.6 2500"/>
    </defs>
    <clipPath id="SVGID_36_">
      <use xlink:href="#SVGID_35_" overflow="visible"/>
    </clipPath>
    <path d="M1325.8 2754.8c-19.6-4.9-29.4 0-44.1 0s-19.6 14.7-19.6 24.5 0 24.5 9.8 29.4c9.8 9.8 24.5 14.7 39.2 19.6 19.6 4.9 29.4 0 44.1 0 9.8-4.9 19.6-14.7 19.6-24.5s0-19.6-9.8-29.4c-9.8-9.8-24.5-14.7-39.2-19.6m-436.1-24.5l53.9 9.8L924 2696l-34.3 34.3zm279.3-210.7c-205.8-215.6-210.7-475.3-78.4-710.4l-171.5-29.4-191 1097.5 877 156.8 58.8-328.3c-4.9-4.9-289.1 29.4-494.9-186.2m-205.8 264.6l-9.8-24.5L875 2745l-19.6 19.6-44.1-9.8 93.1-93.1 49 9.8 53.9 117.6-44.1-4.9zm240.1-44.1l-58.8-14.7-14.7 88.2-44.1-9.8 14.7-88.2-63.7-9.8 4.9-19.6 171.5 29.4-9.8 24.5zm215.6 73.5c-4.9 19.6-14.7 29.4-39.2 39.2-19.6 4.9-39.2 4.9-68.6 0s-53.9-14.7-68.6-24.5c-19.6-14.7-29.4-29.4-24.5-49 4.9-19.6 14.7-34.3 39.2-39.2 19.6-4.9 39.2-4.9 68.6 0s53.9 14.7 68.6 24.5c19.6 9.8 24.5 29.4 24.5 49m171.5 83.3l-147-24.5 19.6-107.8 44.1 9.8-19.6 83.3 102.9 19.6v19.6z" clip-path="url(#SVGID_36_)"/>
  </g>
  <g>
    <defs>
      <path id="SVGID_37_" d="M164.6 2500c0 597.8 485.1 1082.8 1082.8 1082.8s1082.8-485 1082.8-1082.8-485.1-1082.8-1082.8-1082.8S164.6 1902.2 164.6 2500"/>
    </defs>
    <clipPath id="SVGID_38_">
      <use xlink:href="#SVGID_37_" overflow="visible"/>
    </clipPath>
    <path d="M316.5 2735.2c0-9.8-4.9-14.7-4.9-24.5s-4.9-14.7-9.8-24.5l220.5-58.8 19.6 78.4c9.8 44.1 0 73.5-34.3 83.3-58.8 14.7-78.4-24.5-98-78.4l-93.1 24.5zm117.6-34.3c0 4.9 4.9 14.7 9.8 19.6 9.8 19.6 34.3 19.6 49 14.7 24.5-4.9 39.2-24.5 34.3-39.2l-4.9-19.6-88.2 24.5z" clip-path="url(#SVGID_38_)"/>
  </g>
  <g>
    <defs>
      <path id="SVGID_39_" d="M164.6 2500c0 597.8 485.1 1082.8 1082.8 1082.8s1082.8-485 1082.8-1082.8-485.1-1082.8-1082.8-1082.8S164.6 1902.2 164.6 2500"/>
    </defs>
    <clipPath id="SVGID_40_">
      <use xlink:href="#SVGID_39_" overflow="visible"/>
    </clipPath>
    <path d="M581.1 2803.8l34.3 58.8c9.8 14.7 19.6 34.3 19.6 49 0 19.6-4.9 39.2-24.5 49-29.4 14.7-58.8 9.8-78.4-14.7-19.6 29.4-34.3 63.7-49 98l-9.8 19.6-14.7-29.4c-4.9-9.8-9.8-14.7-14.7-24.5l39.2-68.6c4.9-9.8 14.7-24.5 19.6-39.2l-93.1 58.8c-4.9-9.8-4.9-14.7-9.8-24.5-4.9-4.9-9.8-14.7-14.7-19.6l196-112.7zm-68.6 93.1c14.7 29.4 39.2 39.2 68.6 19.6 4.9 0 9.8-4.9 14.7-9.8 19.6-19.6 4.9-39.2-4.9-53.9l-78.4 44.1z" clip-path="url(#SVGID_40_)"/>
  </g>
  <g>
    <defs>
      <path id="SVGID_41_" d="M164.6 2500c0 597.8 485.1 1082.8 1082.8 1082.8s1082.8-485 1082.8-1082.8-485.1-1082.8-1082.8-1082.8S164.6 1902.2 164.6 2500"/>
    </defs>
    <clipPath id="SVGID_42_">
      <use xlink:href="#SVGID_41_" overflow="visible"/>
    </clipPath>
    <path d="M610.5 3220.2c-53.9-49-63.7-112.7-14.7-171.5 44.1-49 117.6-58.8 176.4-4.9 73.5 63.7 49 132.3 14.7 171.5-39.2 49-112.7 58.8-176.4 4.9m19.6-127.3c-29.4 34.3-44.1 78.4-4.9 112.7s88.2 9.8 127.4-29.4c29.4-34.3 44.1-83.3 9.8-112.7-39.2-34.3-83.3-24.5-132.3 29.4" clip-path="url(#SVGID_42_)"/>
  </g>
  <g>
    <defs>
      <path id="SVGID_43_" d="M164.6 2500c0 597.8 485.1 1082.8 1082.8 1082.8s1082.8-485 1082.8-1082.8-485.1-1082.8-1082.8-1082.8S164.6 1902.2 164.6 2500"/>
    </defs>
    <clipPath id="SVGID_44_">
      <use xlink:href="#SVGID_43_" overflow="visible"/>
    </clipPath>
    <path d="M889.7 3386.8c-4.9-4.9-14.7-9.8-24.5-9.8-9.8-4.9-14.7-4.9-24.5-9.8L924 3181c-19.6-9.8-44.1-14.7-58.8-19.6 0-4.9 4.9-9.8 4.9-14.7 0-4.9 4.9-9.8 4.9-14.7l156.8 68.6c0 4.9-4.9 9.8-4.9 9.8 0 4.9-4.9 9.8-4.9 14.7-14.7-9.8-34.3-19.6-53.9-29.4l-78.4 191.1z" clip-path="url(#SVGID_44_)"/>
  </g>
  <g>
    <defs>
      <path id="SVGID_45_" d="M164.6 2500c0 597.8 485.1 1082.8 1082.8 1082.8s1082.8-485 1082.8-1082.8-485.1-1082.8-1082.8-1082.8S164.6 1902.2 164.6 2500"/>
    </defs>
    <clipPath id="SVGID_46_">
      <use xlink:href="#SVGID_45_" overflow="visible"/>
    </clipPath>
    <path d="M1193.5 3230c0 4.9-4.9 9.8-4.9 14.7v14.7c-19.6-4.9-39.2-14.7-73.5-19.6l-9.8 68.6 34.3 4.9c14.7 4.9 29.4 4.9 39.2 4.9 0 4.9-4.9 9.8-4.9 14.7v14.7c-9.8-4.9-24.5-4.9-39.2-9.8l-34.3-4.9-14.7 83.3c34.3 4.9 53.9 9.8 78.4 9.8 0 4.9-4.9 9.8-4.9 14.7v14.7l-122.5-19.6 39.2-225.4 117.6 19.6z" clip-path="url(#SVGID_46_)"/>
  </g>
  <g>
    <defs>
      <path id="SVGID_47_" d="M164.6 2500c0 597.8 485.1 1082.8 1082.8 1082.8s1082.8-485 1082.8-1082.8-485.1-1082.8-1082.8-1082.8S164.6 1902.2 164.6 2500"/>
    </defs>
    <clipPath id="SVGID_48_">
      <use xlink:href="#SVGID_47_" overflow="visible"/>
    </clipPath>
    <path d="M1433.6 3406.4l-4.9 29.4c-19.6 9.8-44.1 19.6-63.7 19.6-68.6 4.9-127.4-29.4-137.2-98-9.8-88.2 49-132.3 117.6-137.2 19.6 0 49 0 68.6 9.8 0 9.8-4.9 24.5-4.9 34.3h-4.9c-14.7-14.7-34.3-29.4-58.8-24.5-53.9 4.9-73.5 58.8-68.6 107.8 4.9 58.8 39.2 93.1 88.2 88.2 24.5-4.9 49-19.6 68.6-29.4z" clip-path="url(#SVGID_48_)"/>
  </g>
  <g>
    <defs>
      <path id="SVGID_49_" d="M164.6 2500c0 597.8 485.1 1082.8 1082.8 1082.8s1082.8-485 1082.8-1082.8-485.1-1082.8-1082.8-1082.8S164.6 1902.2 164.6 2500"/>
    </defs>
    <clipPath id="SVGID_50_">
      <use xlink:href="#SVGID_49_" overflow="visible"/>
    </clipPath>
    <path d="M1619.8 3381.9c-9.8 4.9-14.7 4.9-24.5 9.8s-14.7 4.9-24.5 9.8l-73.5-191.1c-19.6 9.8-39.2 19.6-53.9 24.5 0-4.9 0-9.8-4.9-14.7 0-4.9-4.9-9.8-4.9-14.7l156.8-63.7c0 4.9 0 9.8 4.9 14.7 0 4.9 4.9 9.8 4.9 14.7-19.6 4.9-39.2 9.8-58.8 19.6l78.4 191.1z" clip-path="url(#SVGID_50_)"/>
  </g>
  <g>
    <defs>
      <path id="SVGID_51_" d="M164.6 2500c0 597.8 485.1 1082.8 1082.8 1082.8s1082.8-485 1082.8-1082.8-485.1-1082.8-1082.8-1082.8S164.6 1902.2 164.6 2500"/>
    </defs>
    <clipPath id="SVGID_52_">
      <use xlink:href="#SVGID_51_" overflow="visible"/>
    </clipPath>
    <path d="M1722.7 3053.7c0 4.9 4.9 9.8 4.9 14.7 4.9 4.9 4.9 9.8 9.8 9.8-19.6 9.8-39.2 19.6-63.7 39.2l39.2 58.8 29.4-19.6c9.8-9.8 24.5-19.6 29.4-24.5 0 4.9 4.9 9.8 4.9 14.7l9.8 9.8c-9.8 4.9-24.5 14.7-34.3 19.6l-29.4 19.6 49 68.6c29.4-19.6 44.1-34.3 58.8-49 0 4.9 4.9 9.8 4.9 14.7 0 4.9 4.9 9.8 9.8 9.8l-102.9 73.5-132.3-186.2 112.7-73.5z" clip-path="url(#SVGID_52_)"/>
  </g>
  <g>
    <defs>
      <path id="SVGID_53_" d="M164.6 2500c0 597.8 485.1 1082.8 1082.8 1082.8s1082.8-485 1082.8-1082.8-485.1-1082.8-1082.8-1082.8S164.6 1902.2 164.6 2500"/>
    </defs>
    <clipPath id="SVGID_54_">
      <use xlink:href="#SVGID_53_" overflow="visible"/>
    </clipPath>
    <path d="M1825.6 2941c44.1-53.9 102.9-44.1 147-14.7 58.8 44.1 58.8 117.6 19.6 166.6l-58.8 73.5-176.4-142.1 68.6-83.3zm122.5 176.4l19.6-24.5c29.4-34.3 34.3-78.4-29.4-127.4-49-39.2-88.2-29.4-117.6 4.9l-19.6 24.5 147 122.5z" clip-path="url(#SVGID_54_)"/>
  </g>
  <g>
    <defs>
      <path id="SVGID_55_" d="M164.6 2500c0 597.8 485.1 1082.8 1082.8 1082.8s1082.8-485 1082.8-1082.8-485.1-1082.8-1082.8-1082.8S164.6 1902.2 164.6 2500"/>
    </defs>
    <clipPath id="SVGID_56_">
      <use xlink:href="#SVGID_55_" overflow="visible"/>
    </clipPath>
    <path d="M1051.4 1725.9c9.8 9.8 19.6 14.7 34.3 14.7 19.6 4.9 34.3 0 44.1-14.7 9.8-14.7 14.7-29.4 19.6-44.1-9.8 14.7-29.4 19.6-44.1 14.7-39.2-9.8-58.8-34.3-49-78.4 4.9-24.5 14.7-44.1 29.4-53.9 14.7-9.8 34.3-14.7 58.8-9.8 14.7 4.9 24.5 9.8 34.3 14.7 9.8 9.8 14.7 14.7 19.6 24.5 4.9 19.6 4.9 44.1 0 73.5s-14.7 58.8-34.3 78.4c-19.6 24.5-44.1 34.3-78.4 29.4l-44.1-14.7 9.8-34.3zm63.7-58.8c9.8 0 19.6 0 24.5-9.8 4.9-4.9 9.8-14.7 9.8-29.4v-29.4c-4.9-9.8-9.8-14.7-19.6-14.7s-19.6 0-24.5 9.8c-4.9 9.8-9.8 14.7-9.8 29.4v29.4c4.9 4.9 9.8 14.7 19.6 14.7" clip-path="url(#SVGID_56_)"/>
  </g>
  <g>
    <defs>
      <path id="SVGID_57_" d="M164.6 2500c0 597.8 485.1 1082.8 1082.8 1082.8s1082.8-485 1082.8-1082.8-485.1-1082.8-1082.8-1082.8S164.6 1902.2 164.6 2500"/>
    </defs>
    <clipPath id="SVGID_58_">
      <use xlink:href="#SVGID_57_" overflow="visible"/>
    </clipPath>
    <path d="M1355.2 1637.7c-4.9-4.9-9.8-4.9-14.7-9.8-4.9-4.9-9.8-4.9-19.6-4.9-19.6-4.9-29.4 4.9-44.1 14.7-9.8 14.7-14.7 29.4-19.6 44.1 9.8-14.7 29.4-19.6 44.1-14.7 39.2 9.8 58.8 34.3 49 78.4-4.9 24.5-14.7 39.2-24.5 53.9-14.7 9.8-29.4 14.7-53.9 9.8-29.4-4.9-44.1-19.6-53.9-44.1-4.9-9.8-4.9-19.6-4.9-34.3 0-9.8 0-24.5 4.9-39.2 4.9-29.4 14.7-58.8 34.3-83.3 14.7-24.5 44.1-34.3 73.5-29.4l44.1 14.7-14.7 44.1zm-63.7 58.8c-9.8 0-19.6 0-24.5 9.8-4.9 9.8-9.8 14.7-9.8 29.4v29.4c4.9 9.8 9.8 14.7 19.6 14.7s19.6 0 24.5-9.8c4.9-4.9 9.8-14.7 9.8-24.5v-29.4c-4.9-9.8-9.8-14.7-19.6-19.6" clip-path="url(#SVGID_58_)"/>
  </g>
  <g>
    <defs>
      <path id="SVGID_59_" d="M164.6 2500c0 597.8 485.1 1082.8 1082.8 1082.8s1082.8-485 1082.8-1082.8-485.1-1082.8-1082.8-1082.8S164.6 1902.2 164.6 2500"/>
    </defs>
    <clipPath id="SVGID_60_">
      <use xlink:href="#SVGID_59_" overflow="visible"/>
    </clipPath>
    <path clip-path="url(#SVGID_60_)" d="M1482.6 1618.1l39.2 9.8-39.2 215.5-44.1-4.9 29.4-171.4-39.2 24.5-14.7-34.3z"/>
  </g>
  <g>
    <defs>
      <path id="SVGID_61_" d="M164.6 2500c0 597.8 485.1 1082.8 1082.8 1082.8s1082.8-485 1082.8-1082.8-485.1-1082.8-1082.8-1082.8S164.6 1902.2 164.6 2500"/>
    </defs>
    <clipPath id="SVGID_62_">
      <use xlink:href="#SVGID_61_" overflow="visible"/>
    </clipPath>
    <path d="M1600.2 1745.5c-9.8-4.9-14.7-14.7-19.6-24.5-4.9-9.8-4.9-19.6-4.9-29.4 4.9-19.6 14.7-34.3 24.5-39.2 14.7-4.9 29.4-9.8 49-4.9s34.3 9.8 49 19.6c9.8 9.8 14.7 24.5 14.7 44.1 0 9.8-4.9 19.6-14.7 29.4-9.8 9.8-19.6 14.7-29.4 19.6 24.5 19.6 34.3 39.2 29.4 63.7-4.9 19.6-14.7 34.3-29.4 44.1-14.7 9.8-34.3 9.8-53.9 4.9s-39.2-9.8-49-24.5c-14.7-9.8-19.6-29.4-14.7-53.9s24.5-39.2 49-49zm-4.9 58.8c0 9.8 0 14.7 4.9 24.5 4.9 4.9 9.8 9.8 19.6 14.7 9.8 0 14.7 0 24.5-4.9 4.9-4.9 9.8-9.8 14.7-19.6 0-9.8 0-19.6-4.9-29.4-4.9-4.9-14.7-14.7-24.5-14.7s-14.7 4.9-19.6 9.8c-9.8 0-14.7 9.8-14.7 19.6m19.6-102.9v14.7c0 4.9 4.9 9.8 4.9 9.8l9.8 9.8c4.9 4.9 4.9 4.9 9.8 4.9s14.7-4.9 19.6-9.8 9.8-9.8 9.8-19.6 0-14.7-4.9-19.6c-4.9-4.9-9.8-9.8-19.6-9.8s-14.7 0-24.5 4.9c4.9 0 0 4.9-4.9 14.7" clip-path="url(#SVGID_62_)"/>
  </g>
</svg>